<?xml version="1.0" standalone="no"?>
<!DOCTYPE svg PUBLIC "-//W3C//DTD SVG 20010904//EN"
 "http://www.w3.org/TR/2001/REC-SVG-20010904/DTD/svg10.dtd">
<svg version="1.0" xmlns="http://www.w3.org/2000/svg"
 width="282.000000pt" height="232.000000pt" viewBox="0 0 282.000000 232.000000"
 preserveAspectRatio="xMidYMid meet">

<g transform="translate(0.000000,232.000000) scale(0.100000,-0.100000)"
fill="#000000" stroke="none">
<path d="M1360 2108 c-47 -13 -56 -22 -249 -248 -237 -277 -241 -282 -241
-339 0 -37 7 -57 28 -87 29 -39 315 -376 418 -491 57 -65 82 -75 124 -53 22
12 452 508 481 555 30 48 25 106 -15 158 -83 108 -392 464 -420 483 -40 27
-82 35 -126 22z"/>
<path d="M2035 1290 c-16 -4 -40 -13 -53 -21 -13 -8 -145 -157 -294 -331 -149
-175 -274 -318 -278 -318 -7 0 -72 70 -136 148 -187 225 -416 481 -449 499
-46 26 -113 30 -153 9 -38 -21 -101 -88 -343 -371 -118 -137 -221 -264 -228
-282 -16 -39 -7 -89 23 -121 50 -56 -23 -53 1283 -52 1312 1 1236 -3 1282 56
24 30 28 105 8 140 -7 11 -80 99 -163 195 -84 96 -196 225 -250 288 -55 63
-111 123 -125 133 -32 24 -85 36 -124 28z"/>
</g>
</svg>
